<svg width="17" height="17" viewBox="0 0 17 17" fill="none" xmlns="http://www.w3.org/2000/svg">
<g clip-path="url(#clip0_6_128)">
<path d="M4.76665 6.9C3.91796 6.9 3.10403 6.56286 2.50391 5.96274C1.90379 5.36263 1.56665 4.54869 1.56665 3.7C1.56665 2.85131 1.90379 2.03737 2.50391 1.43726C3.10403 0.837142 3.91796 0.5 4.76665 0.5L12.2333 0.5C13.082 0.5 13.8959 0.837142 14.4961 1.43726C15.0962 2.03737 15.4333 2.85131 15.4333 3.7C15.4333 4.54869 15.0962 5.36263 14.4961 5.96274C13.8959 6.56286 13.082 6.9 12.2333 6.9H10.1V4.23333C10.1 3.52609 9.81903 2.84781 9.31894 2.34772C8.81884 1.84762 8.14056 1.56667 7.43332 1.56667C6.72607 1.56667 6.0478 1.84762 5.5477 2.34772C5.0476 2.84781 4.76665 3.52609 4.76665 4.23333V6.9Z" fill="white"/>
<path d="M7.73333 3C7.30899 3 6.90202 3.16857 6.60196 3.46863C6.3019 3.76869 6.13333 4.17565 6.13333 4.6V9.45333C5.53101 9.57628 4.98966 9.90356 4.6009 10.3798C4.21215 10.856 3.99987 11.4519 4 12.0667C4 13.3397 4.50571 14.5606 5.40589 15.4608C6.30606 16.361 7.52696 16.8667 8.8 16.8667H9.33333C10.7478 16.8667 12.1044 16.3048 13.1046 15.3046C14.1048 14.3044 14.6667 12.9478 14.6667 11.5333V10.6235C14.6667 10.0161 14.4254 9.43358 13.9959 9.0041C13.5664 8.57462 12.9839 8.33333 12.3765 8.33333H9.33333V4.6C9.33333 4.17565 9.16476 3.76869 8.8647 3.46863C8.56465 3.16857 8.15768 3 7.73333 3Z" fill="white"/>
</g>
<defs>
<clipPath id="clip0_6_128">
<rect width="16" height="16" fill="white" transform="translate(0.5 0.5)"/>
</clipPath>
</defs>
</svg>
